<svg xmlns="http://www.w3.org/2000/svg" shape-rendering="geometricPrecision" text-rendering="geometricPrecision" image-rendering="optimizeQuality" fill-rule="evenodd" clip-rule="evenodd" viewBox="0 0 512 328.373"><path fill="#BCD9E4" d="M37.397 0h437.206C495.172 0 512 16.844 512 37.397v253.579c0 20.553-16.844 37.397-37.397 37.397H37.397C16.844 328.373 0 311.545 0 290.976V37.397C0 16.827 16.827 0 37.397 0z"/><path fill="#87B1BE" d="M37.397 0h437.206C495.172 0 512 16.851 512 37.397v35.915H0V37.397C0 16.827 16.827 0 37.397 0z"/><path fill="#85A9B3" d="M262.722 222.148c-3.119 0-5.629-3.373-5.629-7.507 0-4.134 2.51-7.506 5.629-7.506h194.095c3.119 0 5.629 3.372 5.629 7.506s-2.51 7.507-5.629 7.507H262.722zm.003 45.418c-3.118 0-5.632-3.369-5.632-7.507 0-4.134 2.514-7.506 5.632-7.506h194.092c3.119 0 5.633 3.372 5.633 7.506 0 4.138-2.514 7.507-5.633 7.507H262.725zm-.003-136.068c-3.119 0-5.629-3.372-5.629-7.507 0-4.137 2.51-7.506 5.629-7.506h139.05c3.119 0 5.633 3.369 5.633 7.506 0 4.135-2.514 7.507-5.633 7.507h-139.05zm0 45.325c-3.119 0-5.629-3.369-5.629-7.506 0-4.134 2.51-7.507 5.629-7.507h193.895c3.118 0 5.629 3.373 5.629 7.507 0 4.137-2.511 7.506-5.629 7.506H262.722z"/><path fill="#194794" fill-rule="nonzero" d="M159.457 203.665c5.761 12.822 19.363 15.086 30.833 17.303 16.777 3.241 37.565 19.084 37.565 37.039v7.317a2.246 2.246 0 01-2.244 2.241H51.798a2.246 2.246 0 01-2.244-2.241v-6.62c0-21.574 21.815-34.317 39.444-36.676 12.826-1.715 23.5-3.455 28.014-18.959 1.168 1.023 2.395 2.056 3.646 3.169 11.684 10.387 24.848 10.838 36.104-.017.925-.895 1.829-1.737 2.695-2.556z"/><path fill="#D2A75F" fill-rule="nonzero" d="M159.457 203.668c3.014 6.706 8.173 10.526 14.046 12.957-19.867 14.576-47.295 13.734-67.727 1.277 6.189-3.334 9.288-8.16 11.229-14.836 1.168 1.023 2.399 2.056 3.653 3.172 11.684 10.387 24.848 10.838 36.104-.017.925-.895 1.829-1.737 2.695-2.553z"/><path fill="#DBB26F" fill-rule="nonzero" d="M139.81 227.397c-11.881.053-23.831-3.277-34.034-9.495 6.166-3.32 9.344-8.223 11.232-14.836 1.172 1.023 2.396 2.056 3.65 3.172 6.136 5.455 12.687 8.169 19.152 7.946v13.213z"/><path fill="#E9BE79" d="M98.547 168.146c1.542-4.412 5.125-2.993 10.234-1.128l-.046-.225.046.027c3.607-37.862 27.794-16.735 46.181-35.829l.621-.492a38.667 38.667 0 013.132 1.746c7.838 5.267 12.59 14.863 11.17 33.618l.05-.04a94.616 94.616 0 01-.508 3.313c4.647-3.521 11.342-3.191 9.237 4.604l-2.878 8.148c-.69 1.954-1.148 2.66-3.614 2.528-1.088-.06-2.184-.479-3.276-1.201 1.009 12.025-4.828 15.949-12.135 23.001-11.253 10.861-24.421 10.412-36.1.02-6.844-6.085-12.92-9.781-13.223-22.292-1.772.544-3.449.643-4.914-.191-2.921-1.66-3.983-6.495-4.141-9.591-.067-1.243-.014-4.748.164-6.016z"/><path fill="#F2CD8C" d="M98.547 168.146c1.543-4.413 5.126-2.993 10.235-1.13l-.046-.22.046.025c2.663-27.955 16.542-23.751 31.027-27.321v74.683c-6.464.226-13.012-2.486-19.149-7.946-6.842-6.086-12.919-9.78-13.22-22.292-1.774.543-3.452.642-4.916-.191-4.251-2.419-4.594-11.169-3.977-15.608z"/><path fill="#333231" d="M89.715 128.611c22.538-27.85 48.515-42.998 68.022-18.222 23.904 1.255 32.196 40.258 12.147 55.475 1.606-21.185-4.665-30.686-14.362-35.461-18.456 20.125-43.096-1.828-46.74 36.417l-8.845-4.606c-.879-10.97 1.691-30-10.222-33.603z"/></svg>